SplineFontDB: 3.0
FontName: Carrateri
FullName: Carrateri
FamilyName: Carrateri
Weight: Normal
Copyright: 
Version: 001.001
ItalicAngle: 0
UnderlinePosition: -50
UnderlineWidth: 50
Ascent: 750
Descent: 250
sfntRevision: 0x00010000
LayerCount: 2
Layer: 0 0 "Back"  1
Layer: 1 0 "Fore"  0
NeedsXUIDChange: 1
XUID: [1021 14 500265001 7641160]
FSType: 4
OS2Version: 3
OS2_WeightWidthSlopeOnly: 0
OS2_UseTypoMetrics: 1
CreationTime: 1317372735
ModificationTime: 1317502881
PfmFamily: 81
TTFWeight: 400
TTFWidth: 5
LineGap: 0
VLineGap: 0
Panose: 0 0 0 0 0 0 0 0 0 0
OS2TypoAscent: 0
OS2TypoAOffset: 1
OS2TypoDescent: 0
OS2TypoDOffset: 1
OS2TypoLinegap: 0
OS2WinAscent: -285
OS2WinAOffset: 1
OS2WinDescent: -196
OS2WinDOffset: 1
HheadAscent: -535
HheadAOffset: 1
HheadDescent: -54
HheadDOffset: 1
OS2SubXSize: 650
OS2SubYSize: 600
OS2SubXOff: 0
OS2SubYOff: 75
OS2SupXSize: 650
OS2SupYSize: 600
OS2SupXOff: 0
OS2SupYOff: 350
OS2StrikeYSize: 50
OS2StrikeYPos: 314
OS2Vendor: 'pyrs'
OS2CodePages: 00000001.00000000
OS2UnicodeRanges: 00000001.00000000.00000000.00000000
Lookup: 4 0 1 "'liga' Standard Ligatures in Latin lookup 0"  {"'liga' Standard Ligatures in Latin lookup 0-1"  } ['liga' ('DFLT' <'dflt' > 'latn' <'dflt' > ) ]
MarkAttachClasses: 1
DEI: 91125
LangName: 1033 "" "" "Regular" "" "Untitled" "Version 1.000;PS 001.001;hotconv 1.0.56" "" "Please refer to the Copyright section for the font trademark attribution notices." "" "" "" "" "" "" "" "" "Untitled" "Regular" 
Encoding: Custom
UnicodeInterp: none
NameList: Adobe Glyph List
DisplaySize: -48
AntiAlias: 1
FitToEm: 1
WidthSeparation: 30
WinInfo: 23 23 3
BeginPrivate: 0
EndPrivate
BeginChars: 87 87

StartChar: G
Encoding: 6 71 1
Width: 841
Flags: HW
LayerCount: 2
Fore
SplineSet
362 -13 m 1
 130 -10 15 175 15 360 c 0
 15 548 134 737 369 737 c 0
 444 737 516 708 581 649 c 1
 621 722 l 1
 672 722 l 1
 672 449 l 1
 613 449 l 1
 567 550 492 643 377 643 c 0
 226 643 180 491 180 358 c 0
 180 211 239 81 379 81 c 0
 470 81 537 126 537 218 c 2
 537 287 l 1
 406 287 l 1
 406 361 l 1
 826 361 l 1
 826 287 l 1
 687 287 l 1
 687 6 l 1
 628 6 l 1
 582 82 l 1
 535 11 443 -12 362 -13 c 1
EndSplineSet
EndChar

StartChar: E
Encoding: 5 69 2
Width: 761
Flags: HW
LayerCount: 2
Fore
SplineSet
15 0 m 1
 15 87 l 1
 134 87 l 1
 134 632 l 1
 15 632 l 1
 15 722 l 1
 746 722 l 1
 746 439 l 1
 626 439 l 1
 626 632 l 1
 279 632 l 1
 279 407 l 1
 437 407 l 1
 437 507 l 1
 522 507 l 1
 522 207 l 1
 437 207 l 1
 437 331 l 1
 279 331 l 1
 279 87 l 1
 626 87 l 1
 626 279 l 1
 746 279 l 1
 746 0 l 1
 15 0 l 1
EndSplineSet
EndChar

StartChar: D
Encoding: 4 68 3
Width: 808
Flags: HW
LayerCount: 2
Fore
SplineSet
15 722 m 1
 106 722 197 722 288 722 c 0
 552 722 793 702 793 357 c 0
 793 66 642 0 366 0 c 2
 15 0 l 1
 15 87 l 1
 134 87 l 1
 134 632 l 1
 15 632 l 1
 15 722 l 1
279 631 m 1
 279 87 l 1
 319 87 l 2
 544 87 647 106 647 350 c 0
 647 615 518 631 299 631 c 2
 279 631 l 1
EndSplineSet
EndChar

StartChar: a
Encoding: 26 97 4
Width: 615
Flags: HW
LayerCount: 2
Fore
SplineSet
15 116 m 0
 15 280 325 227 325 379 c 0
 325 443 276 469 219 469 c 0
 191 469 160 456 133 437 c 1
 155 425 174 410 174 384 c 0
 174 345 146 315 106 315 c 0
 60 315 39 357 39 398 c 0
 39 490 136 539 235 539 c 0
 339 539 445 490 445 393 c 2
 445 155 l 2
 445 122 446 69 491 69 c 0
 538 69 545 117 545 160 c 0
 545 176 544 191 544 203 c 1
 600 203 l 1
 600 89 598 -13 455 -13 c 0
 395 -13 346 26 328 83 c 1
 278 29 231 -13 153 -13 c 0
 71 -13 15 31 15 116 c 0
  Spiro
    15 116 o
    95.2326 223.23 o
    244.767 279.766 o
    325 379 o
    310.213 430.738 o
    271.768 459.908 o
    219 469 o
    190.288 464.934 o
    161.045 453.727 o
    133 437 v
    153.389 423.719 o
    168.27 406.61 o
    174 384 o
    165.276 348.808 o
    141.377 324.205 o
    106 315 o
    68.215 327.384 o
    46.1337 358.296 o
    39 398 o
    67.7607 475.382 o
    140.272 522.921 o
    235 539 o
    335.573 522.736 o
    413.725 473.898 o
    445 393 [
    445 155 ]
    446.92 118.075 o
    459.095 83.9358 o
    491 69 o
    525.865 83.0109 o
    541.453 117.337 o
    545 160 o
    544.741 175.577 o
    544.259 190.088 o
    544 203 v
    600 203 v
    594.202 96.4293 o
    556.084 17.6087 o
    455 -13 o
    399.458 -0.801434 o
    355.556 32.8205 o
    328 83 v
    277.793 34.1538 o
    221.865 -0.135767 o
    153 -13 o
    80.8391 1.52657 o
    32.5216 44.8351 o
    0 0 z
  EndSpiro
135 106 m 0
 135 78 150 63 186 63 c 0
 230 63 315 137 315 181 c 2
 315 262 l 1
 281 197 135 184 135 106 c 0
  Spiro
    135 106 o
    140.212 82.4265 o
    156.8 67.9162 o
    186 63 o
    238.943 83.7771 o
    291.376 130.904 o
    315 181 [
    315 262 v
    253.302 210.043 o
    174.042 166.619 o
    0 0 z
  EndSpiro
EndSplineSet
EndChar

StartChar: s
Encoding: 44 115 5
Width: 479
Flags: HW
LayerCount: 2
Fore
SplineSet
263 53 m 0
 307 53 354 76 354 126 c 0
 354 256 15 130 15 377 c 0
 15 478 101 537 189 537 c 0
 244 537 300 514 336 464 c 1
 350 524 l 1
 408 524 l 1
 408 330 l 1
 357 330 l 1
 319 397 273 464 191 464 c 0
 149 464 112 447 112 406 c 0
 112 282 464 368 464 152 c 0
 464 36 371 -15 278 -15 c 0
 208 -15 137 14 104 64 c 1
 76 0 l 1
 29 0 l 1
 29 66 29 132 29 198 c 1
 94 198 l 1
 103 121 185 53 263 53 c 0
EndSplineSet
EndChar

StartChar: n
Encoding: 39 110 6
Width: 717
Flags: HW
LayerCount: 2
Fore
SplineSet
597 353 m 2
 597 87 l 1
 702 87 l 1
 702 0 l 1
 377 0 l 1
 377 87 l 1
 472 87 l 1
 472 341 l 2
 472 429 418 451 372 451 c 0
 253 451 244 354 244 262 c 2
 244 87 l 1
 339 87 l 1
 339 0 l 1
 15 0 l 1
 15 87 l 1
 119 87 l 1
 119 434 l 1
 15 434 l 1
 15 434 15 478 15 524 c 1
 241 524 l 1
 241 396 l 1
 267 513 345 538 418 538 c 0
 474 538 597 521 597 353 c 2
EndSplineSet
EndChar

StartChar: t
Encoding: 45 116 7
Width: 430
Flags: HW
LayerCount: 2
Fore
SplineSet
115 457 m 1
 15 457 l 1
 15 510 l 1
 162 553 180 652 203 777 c 0
 205 788 215 794 225 794 c 0
 235 794 244 788 244 777 c 2
 244 524 l 1
 387 524 l 1
 387 456 l 1
 244 456 l 1
 244 149 l 2
 244 132 244 82 297 82 c 0
 340 82 344 138 344 182 c 0
 344 196 344 210 344 220 c 1
 415 220 l 1
 419 91 399 -13 258 -13 c 0
 195 -13 115 31 115 136 c 2
 115 457 l 1
EndSplineSet
EndChar

StartChar: e
Encoding: 30 101 8
Width: 545
Flags: HW
LayerCount: 2
Fore
SplineSet
15 245 m 0
 15 395 109.018279474 540.669725442 281 539 c 0
 418.018279474 537.669725442 522 444 525 265 c 1
 163 265 l 1
 163 174 175 79 307 79 c 0
 388 79 424 126 437 206 c 1
 530 206 l 1
 513 65 404.008956669 -14.8803447653 279 -14 c 0
 120.008956669 -12.8803447653 15 101 15 245 c 0
285 457 m 0
 214 457 177 397 168 333 c 1
 395 333 l 1
 395 409 355 457 285 457 c 0
EndSplineSet
EndChar

StartChar: u
Encoding: 46 117 9
Width: 687
Flags: HW
LayerCount: 2
Fore
SplineSet
245 524 m 1
 245 400.333333333 245 276.666666667 245 153 c 0
 245 94 294 74 335 74 c 0
 436 74 443 170 443 262 c 2
 443 437 l 1
 348 437 l 1
 348 524 l 1
 568 524 l 1
 568 379.333333333 568 234.666666667 568 90 c 1
 672 90 l 1
 672 90 672 46 672 0 c 1
 446 0 l 1
 446 129 l 1
 414 16 354 -13 289 -13 c 0
 236 -13 120 3 120 171 c 2
 120 437 l 1
 15 437 l 1
 15 524 l 1
 245 524 l 1
EndSplineSet
EndChar

StartChar: l
Encoding: 37 108 10
Width: 347
Flags: HW
LayerCount: 2
Fore
SplineSet
239 750 m 1
 239 87 l 1
 332 87 l 1
 332 0 l 1
 15 0 l 1
 15 87 l 1
 114 87 l 1
 114 660 l 1
 15 660 l 1
 15 750 l 1
 239 750 l 1
EndSplineSet
EndChar

StartChar: i
Encoding: 34 105 11
Width: 324
Flags: HW
LayerCount: 2
Fore
SplineSet
224 524 m 1
 224 87 l 1
 309 87 l 1
 309 0 l 1
 15 0 l 1
 15 87 l 1
 99 87 l 1
 99 434 l 1
 15 434 l 1
 15 434 15 487 15 524 c 1
 224 524 l 1
97 711 m 0
 97 747 127 777 163 777 c 0
 199 777 229 747 229 711 c 0
 229 675 199 645 163 645 c 0
 127 645 97 675 97 711 c 0
EndSplineSet
EndChar

StartChar: _19
Encoding: 53 -1 12
Width: 692
Flags: HW
LayerCount: 2
Fore
SplineSet
131 60 m 0
 101 60 117 -14 52 -14 c 0
 45 -14 28 -17 25 -4 c 1
 16 85 15 147 15 233 c 0
 15 251 16 296 16 298 c 1
 25 308 l 1
 98 308 l 1
 148 180 236 87 381 87 c 0
 436 87 521 102 521 175 c 0
 521 205 495 235 465 243 c 2
 172 326 l 2
 89 349 25 427 25 514 c 0
 25 660 141 758 284 758 c 0
 355 758 449 726 511 684 c 1
 551 708 522 740 576 740 c 0
 654 740 623 587 623 547 c 0
 623 526 622 468 621 464 c 1
 612 454 l 1
 548 454 l 2
 547 454 540 461 539 464 c 0
 478 565 423 648 295 648 c 0
 236 648 180 632 180 564 c 0
 180 526 188 525 227 510 c 1
 267 500 453 448 493 436 c 0
 581 409 677 343 677 239 c 0
 677 71 550 -24 389 -24 c 0
 373 -24 330 -23 328 -23 c 0
 288.811015336 -13.202753834 202.490589513 16.8696248555 163 42 c 1
 151 48 144 60 131 60 c 0
EndSplineSet
EndChar

StartChar: _20
Encoding: 54 -1 13
Width: 626
Flags: HW
LayerCount: 2
Fore
SplineSet
15 633 m 1
 15 721 l 1
 15 721 28 727 33 730 c 0
 189 792 207 892 244 1042 c 0
 245 1044 251 1051 253 1051 c 2
 327 1051 l 2
 328 1051 334 1044 336 1042 c 0
 339 1036 345 1017 345 1014 c 2
 345 757 l 1
 354 748 l 1
 380 749 502 749 528 748 c 0
 539 748 565 741 565 739 c 2
 565 633 l 1
 345 633 l 1
 345 179 l 2
 345 139 369 105 409 105 c 0
 509 105 506 282 510 344 c 1
 521 346 572 352 584 354 c 1
 584 354 588 354 589 354 c 0
 605 354 611 326 611 314 c 0
 611 149 575 -23 380 -23 c 0
 123 -23 166 170 161 363 c 1
 160 444 153 633 152 633 c 2
 15 633 l 1
EndSplineSet
EndChar

StartChar: _21
Encoding: 55 -1 14
Width: 784
Flags: HW
LayerCount: 2
Fore
SplineSet
15 387 m 0
 15 610 193 758 405 758 c 0
 637 758 769 572 769 357 c 0
 769 145 603 -23 389 -23 c 0
 155 -23 15 165 15 387 c 0
198 345 m 0
 198 204 241 78 401 78 c 0
 510 78 562 157 584 253 c 1
 585 269 585 346 585 363 c 0
 585 503 566 657 390 657 c 0
 213 657 198 483 198 345 c 0
EndSplineSet
EndChar

StartChar: _23
Encoding: 56 -1 15
Width: 480
Flags: HW
LayerCount: 2
Fore
SplineSet
15 5 m 1
 15 87 l 2
 15 116 161 49 161 198 c 2
 161 610 l 2
 161 619 132 637 125 638 c 0
 111 640 47 647 33 647 c 1
 30 649 24 662 24 665 c 0
 24 686 30 737 33 739 c 2
 51 748 l 1
 336 739 l 1
 336 718 336 622 336 601 c 0
 336 456 326 311 326 166 c 0
 326 94 395 92 455 87 c 1
 462 72 465 65 465 51 c 0
 465 34 461 24 455 5 c 1
 405 3 174 -3 125 -4 c 0
 119 -4 76 -5 63 -5 c 0
 52 -5 24 -4 24 -4 c 1
 15 5 l 1
160 966 m 0
 160 1029 198 1061 259 1061 c 0
 322 1061 355 1029 355 969 c 0
 355 909 325 858 258 858 c 0
 190 858 160 907 160 966 c 0
EndSplineSet
EndChar

StartChar: _25
Encoding: 57 -1 16
Width: 371
Flags: HW
LayerCount: 2
Fore
SplineSet
25 4 m 1
 25 8 24 28 24 32 c 0
 24 128 126 -17 126 194 c 0
 126 278 124 328 117 426 c 1
 94 490 15 428 15 500 c 0
 15 507 15 526 16 527 c 1
 16 530 23 536 25 536 c 2
 236 536 l 1
 241 415 222 217 254 87 c 0
 265 43 356 91 356 37 c 0
 356 21 351 4 337 -5 c 1
 326 -5 274 -5 263 -5 c 0
 172 -5 130 -4 25 4 c 1
97 712 m 0
 97 767 132 785 180 785 c 0
 223 785 246 762 246 719 c 0
 246 665 224 636 168 636 c 0
 127 636 97 672 97 712 c 0
EndSplineSet
EndChar

StartChar: _26
Encoding: 58 -1 17
Width: 554
Flags: HW
LayerCount: 2
Fore
SplineSet
25.298828125 -5 m 1
 25.298828125 59 l 2
 25.298828125 76 126.298828125 58 126.298828125 96 c 2
 126.298828125 399 l 2
 126.298828125 403 115.298828125 458 98.298828125 458 c 2
 25.298828125 458 l 2
 12.298828125 458 15.298828125 495 15.298828125 495 c 1
 15.298828125 536 32.298828125 534 80.298828125 536 c 0
 104.298828125 537 216.298828125 540 240.298828125 540 c 1
 240.298828125 408 l 1
 283.298828125 415 280.298828125 547 412.298828125 547 c 0
 487.298828125 547 539.298828125 502 539.298828125 421 c 0
 539.298828125 379 496.298828125 343 456.298828125 343 c 0
 422.298828125 343 391.298828125 368 391.298828125 403 c 0
 391.298828125 433 429.298828125 446 429.298828125 467 c 0
 429.298828125 485 408.298828125 482 397.298828125 482 c 0
 268.298828125 482 254.298828125 268 254.298828125 179 c 0
 254.298828125 168 254.298828125 116 254.298828125 105 c 1
 269.298828125 64 318.298828125 63 355.298828125 59 c 1
 355.298828125 -5 l 1
 25.298828125 -5 l 1
EndSplineSet
EndChar

StartChar: _27
Encoding: 59 -1 18
Width: 619
Flags: HW
LayerCount: 2
Fore
SplineSet
15 128 m 0
 15 349 328 273 328 380 c 0
 328 448 288 473 225 473 c 0
 214 473 144 479 144 449 c 0
 144 427 164 418 164 391 c 0
 164 346 145 323 97 323 c 0
 50 323 25 364 25 408 c 0
 25 518 166 537 246 537 c 0
 333 537 452 516 452 399 c 2
 452 105 l 2
 452 85 477 77 493 77 c 0
 557 77 547 184 548 215 c 1
 552 215 568 216 571 216 c 0
 577 216 601 220 603 206 c 0
 604 196 604 151 604 142 c 0
 604 50 585 -6 483 -6 c 0
 376 -6 344 70 328 70 c 0
 316 70 251 -15 163 -15 c 0
 80 -15 15 38 15 128 c 0
145 151 m 0
 145 116 166 77 204 77 c 0
 300 77 329 157 329 240 c 0
 329 266 327 271 301 271 c 0
 237 271 145 226 145 151 c 0
EndSplineSet
EndChar

StartChar: _28
Encoding: 60 -1 19
Width: 1041
Flags: HW
LayerCount: 2
Fore
SplineSet
15 38 m 0
 15 44 16 59 17 59 c 2
 117 79 l 1
 117 426 l 2
 117 487 15 410 15 505 c 0
 15 511 16 526 17 527 c 2
 35 536 l 1
 250 536 l 1
 250 463 l 1
 264 463 l 1
 308 512 351 555 420 555 c 0
 534 555 520 479 585 435 c 1
 666 490 606 547 765 547 c 0
 840 547 901 515 916 435 c 1
 917 400 924 233 925 197 c 0
 925 192 916 73 952 73 c 2
 1026 73 l 1
 1026 -5 l 1
 714 -5 l 1
 714 59 l 1
 756 68 783 67 796 105 c 1
 797 125 797 218 797 238 c 0
 797 293 826 473 722 473 c 0
 585 473 585 296 585 200 c 0
 585 -14 678 118 678 31 c 0
 678 20 679 -5 659 -5 c 2
 383 -5 l 2
 368 -5 364 32 364 41 c 0
 364 44 365 57 365 59 c 1
 408 69 457 64 457 123 c 2
 457 390 l 2
 457 447 432 473 379 473 c 0
 259 473 246 311 246 224 c 0
 246 205 252 115 255 96 c 1
 278 57 339 86 339 32 c 0
 339 21 339 -5 319 -5 c 2
 26 -5 l 2
 23 -5 17 1 17 4 c 1
 16 6 15 30 15 38 c 0
EndSplineSet
EndChar

StartChar: _29
Encoding: 61 -1 20
Width: 609
Flags: HW
LayerCount: 2
Fore
SplineSet
15 125 m 0
 15 283 185 314 309 344 c 1
 323 346 319 368 319 374 c 0
 319 449 296 473 221 473 c 0
 200 473 164 476 144 463 c 1
 144 463 144 460 144 459 c 0
 144 435 163 416 163 390 c 0
 163 349 133 325 93 325 c 0
 43 325 24 364 24 408 c 0
 24 515 154 546 240 546 c 0
 292 546 442 530 442 445 c 2
 442 123 l 2
 442 97 463 86 483 86 c 0
 539 86 539 182 538 215 c 1
 541 228 559 225 566 225 c 0
 569 225 594 228 594 215 c 2
 594 87 l 2
 594 15 506 -5 455 -5 c 0
 387 -5 337 79 323 79 c 0
 322 79 319 78 318 78 c 0
 310 67 265 22 254 13 c 0
 247 8 222 -5 217 -5 c 2
 98 -5 l 2
 41 -5 15 85 15 125 c 0
143 152 m 0
 143 123 146 105 171 87 c 1
 176 86 199 85 204 85 c 0
 290 85 319 157 319 234 c 0
 319 239 319 265 318 270 c 1
 314 279 311 280 305 280 c 0
 231 280 143 233 143 152 c 0
EndSplineSet
EndChar

StartChar: _30
Encoding: 62 -1 21
Width: 545
Flags: HW
LayerCount: 2
Fore
SplineSet
116.298828125 114 m 1
 119.298828125 138 125.298828125 247 125.298828125 270 c 0
 125.298828125 296 119.298828125 418 116.298828125 445 c 1
 99.298828125 471 45.298828125 471 25.298828125 472 c 1
 14.298828125 484 15.298828125 495 15.298828125 509 c 0
 15.298828125 516 12.298828125 534 25.298828125 536 c 0
 97.298828125 544 168.298828125 548 240.298828125 548 c 1
 240.298828125 435 l 1
 254.298828125 435 l 1
 288.298828125 514 331.298828125 556 415.298828125 556 c 0
 479.298828125 556 530.298828125 514 530.298828125 444 c 0
 530.298828125 404 494.298828125 352 451.298828125 352 c 0
 415.298828125 352 390.298828125 381 390.298828125 416 c 0
 390.298828125 447 406.298828125 459 406.298828125 487 c 1
 259.298828125 487 244.298828125 264 244.298828125 158 c 0
 244.298828125 149 239.298828125 92 263.298828125 87 c 2
 346.298828125 68 l 1
 346.298828125 68 347.298828125 58 347.298828125 54 c 0
 347.298828125 36 344.298828125 4 318.298828125 4 c 2
 15.298828125 4 l 1
 15.298828125 68 l 2
 15.298828125 80 101.298828125 70 116.298828125 114 c 1
EndSplineSet
EndChar

StartChar: _31
Encoding: 63 -1 22
Width: 518
Flags: HW
LayerCount: 2
Fore
SplineSet
16 206 m 1
 16 216 15 265 15 275 c 0
 15 427 110 556 271 556 c 0
 426 556 503 433 503 287 c 0
 503 272 488 266 475 261 c 1
 454 262 358 262 337 261 c 0
 281 259 146 253 145 252 c 2
 136 243 l 2
 135 241 134 223 134 217 c 0
 134 126 189 86 276 86 c 0
 392 86 406 207 465 207 c 0
 468 207 493 210 493 197 c 0
 493 101 342 13 255 13 c 0
 143 13 41 96 16 206 c 1
135 357 m 0
 135 336 152 325 172 325 c 0
 185 325 246 324 259 324 c 0
 293 324 409 302 402 371 c 0
 394 448 337 482 268 482 c 0
 198 482 135 434 135 357 c 0
EndSplineSet
EndChar

StartChar: _32
Encoding: 64 -1 23
Width: 591
Flags: HW
LayerCount: 2
Fore
SplineSet
15 331 m 0
 15 492 117 643 291 643 c 0
 360 643 448 578 470 578 c 0
 501 578 485 643 530 643 c 0
 543 643 549 640 557 624 c 1
 560 573 567 477 567 409 c 0
 567 379 565 375 534 375 c 0
 468 375 444 578 309 578 c 0
 179 578 140 451 144 339 c 0
 149 226 184 64 328 64 c 0
 451 64 504 179 511 284 c 1
 523 295 534 294 548 294 c 0
 556 294 573 297 576 284 c 1
 576 279 576 253 576 248 c 0
 576 99 472 -1 328 -1 c 0
 137 -1 15 143 15 331 c 0
EndSplineSet
EndChar

StartChar: _33
Encoding: 65 -1 24
Width: 444
Flags: HW
LayerCount: 2
Fore
SplineSet
15 235 m 0
 15 351 109 441 223 441 c 0
 325 441 429 343 429 238 c 0
 429 234 432 211 420 211 c 2
 135 211 l 1
 117 202 l 2
 117 201 116 189 116 184 c 0
 116 105 169 45 250 45 c 0
 350 45 359 166 411 166 c 0
 423 166 429 160 429 147 c 0
 429 48 323 -10 238 -10 c 0
 97 -10 15 101 15 235 c 0
126 266 m 0
 181 256 208 256 259 256 c 0
 267 256 302 257 309 257 c 1
 319 264 328 269 328 280 c 0
 328 344 268 377 216 377 c 0
 162 377 116 353 116 289 c 0
 116 281 114 269 126 266 c 0
EndSplineSet
EndChar

StartChar: _34
Encoding: 66 -1 25
Width: 573
Flags: HW
LayerCount: 2
Fore
SplineSet
16 33 m 0
 16 66 89 36 89 64 c 2
 89 303 l 2
 89 373 15 341 15 395 c 0
 15 397 16 410 16 413 c 1
 50 425 81 423 117 423 c 0
 125 423 164 422 172 422 c 1
 194 413 177 366 204 366 c 0
 217 366 280 432 346 432 c 0
 529 432 479 201 484 83 c 1
 490 38 558 68 558 23 c 0
 558 18 559 0 548 0 c 2
 328 0 l 2
 313 0 308 17 308 28 c 0
 308 56 370 47 383 83 c 1
 383 94 384 149 384 161 c 0
 384 218 410 386 310 386 c 0
 200 386 189 242 189 165 c 0
 189 153 190 95 190 83 c 1
 203 47 223 48 264 46 c 1
 266 42 273 23 273 18 c 0
 273 13 266 0 264 0 c 2
 25 0 l 2
 24 0 18 19 16 28 c 1
 16 28 16 31 16 33 c 0
EndSplineSet
EndChar

StartChar: _35
Encoding: 67 -1 26
Width: 446
Flags: HW
LayerCount: 2
Fore
SplineSet
15 211 m 0
 15 329 97 432 217 432 c 0
 324 432 429 349 429 233 c 0
 429 228 430 206 419 206 c 2
 117 206 l 1
 107 193 l 2
 107 192 113 160 117 147 c 0
 134 78 176 45 245 45 c 0
 371 45 342 160 431 160 c 1
 431 60 333 -19 238 -19 c 0
 114 -19 15 87 15 211 c 0
116 279 m 0
 116 274 114 257 126 257 c 2
 330 257 l 1
 330 317 287 377 223 377 c 0
 165 377 116 341 116 279 c 0
EndSplineSet
EndChar

StartChar: _36
Encoding: 68 -1 27
Width: 435
Flags: HW
LayerCount: 2
Fore
SplineSet
34 0 m 1
 23 3 24 15 24 23 c 0
 24 25 25 35 25 37 c 1
 35 39 80 52 89 55 c 0
 92 56 98 63 98 64 c 2
 98 339 l 2
 98 378 15 346 15 390 c 0
 15 397 20 413 25 413 c 2
 181 413 l 1
 181 413 187 355 190 330 c 0
 191 320 186 318 199 312 c 1
 223 369 268 423 332 423 c 0
 378 423 420 399 420 348 c 0
 420 314 400 275 360 275 c 0
 356 275 314 284 314 294 c 2
 314 364 l 1
 314 364 298 369 291 367 c 0
 201 347 199 178 199 124 c 0
 199 16 283 62 283 25 c 0
 283 -10 251 -9 218 -9 c 0
 190 -9 62 -3 34 0 c 1
EndSplineSet
EndChar

StartChar: _37
Encoding: 69 -1 28
Width: 437
Flags: HW
LayerCount: 2
Fore
SplineSet
15 211 m 0
 15 321 83 432 207 432 c 0
 317 432 421 348 421 233 c 0
 421 227 420 212 419 211 c 2
 401 202 l 1
 117 202 l 2
 114 202 108 195 107 193 c 0
 107 192 107 173 107 166 c 0
 107 95 158 36 231 36 c 0
 347 36 346 161 422 161 c 1
 422 57 329 -20 229 -20 c 0
 91 -20 15 83 15 211 c 0
117 257 m 1
 177 248 204 247 259 247 c 0
 266 247 302 248 309 248 c 1
 322 250 319 269 319 276 c 0
 319 326 269 377 218 377 c 0
 159 377 107 332 107 270 c 0
 107 264 109 261 117 257 c 1
EndSplineSet
EndChar

StartChar: _38
Encoding: 70 -1 29
Width: 574
Flags: HW
LayerCount: 2
Fore
SplineSet
17 23 m 0
 17 57 90 28 90 64 c 2
 90 312 l 2
 90 365 15 339 15 390 c 0
 15 403 16 413 35 413 c 2
 182 413 l 1
 182 409 183 357 205 357 c 0
 218 357 283 431 357 431 c 0
 392 431 480 396 480 349 c 2
 480 83 l 2
 480 42 568 59 558 18 c 0
 557 14 544 1 540 0 c 0
 515 -2 399 -8 375 -9 c 0
 373 -9 358 -9 354 -9 c 0
 336 -9 310 -4 310 18 c 0
 310 51 372 41 384 83 c 1
 384 98 385 168 385 184 c 0
 385 239 408 377 315 377 c 0
 198 377 190 231 190 147 c 0
 190 136 191 84 191 73 c 1
 196 42 243 39 265 37 c 1
 265 34 268 21 268 18 c 0
 268 -7 259 -9 228 -9 c 2
 26 -9 l 2
 25 -9 19 10 17 18 c 0
 17 19 17 22 17 23 c 0
EndSplineSet
EndChar

StartChar: _39
Encoding: 71 -1 30
Width: 380
Flags: HW
LayerCount: 2
Fore
SplineSet
103.125 362 m 1
 25.125 362 l 2
 13.125 362 15.125 392 15.125 395 c 0
 15.125 436 85.125 453 107.125 486 c 0
 110.125 491 136.125 542 144.125 560 c 0
 150.125 572 151.125 606 171.125 606 c 0
 184.125 606 199.125 592 199.125 578 c 2
 199.125 431 l 1
 336.125 431 l 2
 349.125 431 347.125 406 347.125 403 c 0
 347.125 331 241.125 391 208.125 358 c 2
 199.125 349 l 1
 199.125 110 l 2
 199.125 82 224.125 45 254.125 45 c 0
 340.125 45 298.125 202 341.125 202 c 0
 350.125 202 356.125 198 364.125 193 c 1
 364.125 187 365.125 162 365.125 156 c 0
 365.125 51 325.125 -19 212.125 -19 c 0
 173.125 -19 103.125 20 103.125 64 c 2
 103.125 362 l 1
EndSplineSet
EndChar

StartChar: _40
Encoding: 72 -1 31
Width: 472
Flags: HW
LayerCount: 2
Fore
SplineSet
15 213 m 0
 15 346 112 441 243 441 c 0
 372 441 457 349 457 220 c 0
 457 93 355 -10 228 -10 c 0
 102 -10 15 91 15 213 c 0
116 206 m 0
 116 120 142 45 236 45 c 0
 337 45 355 147 355 230 c 0
 355 312 331 386 238 386 c 0
 131 386 116 301 116 206 c 0
EndSplineSet
EndChar

StartChar: _41
Encoding: 73 -1 32
Width: 307
Flags: HW
LayerCount: 2
Fore
SplineSet
15.0234375 41 m 0
 15.0234375 91 90.0234375 60 108.0234375 101 c 1
 115.0234375 242 118.0234375 319 118.0234375 442 c 0
 118.0234375 646 25.0234375 553 25.0234375 610 c 0
 25.0234375 616 23.0234375 632 35.0234375 633 c 2
 181.0234375 642 l 1
 209.0234375 633 l 1
 209.0234375 110 l 2
 209.0234375 54 292.0234375 102 292.0234375 51 c 0
 292.0234375 20 266.0234375 20 236.0234375 18 c 0
 232.0234375 18 159.0234375 17 131.0234375 17 c 0
 115.0234375 17 41.0234375 18 25.0234375 18 c 1
 14.0234375 21 15.0234375 33 15.0234375 41 c 0
EndSplineSet
EndChar

StartChar: _42
Encoding: 74 -1 33
Width: 465
Flags: HW
LayerCount: 2
Fore
SplineSet
15 119 m 0
 15 235 155 262 245 284 c 0
 268 290 264 312 264 328 c 0
 264 373 242 404 195 404 c 0
 179 404 110 398 116 367 c 0
 117 364 134 343 135 339 c 2
 135 339 136 327 136 322 c 0
 136 286 115 265 78 265 c 0
 40 265 33 301 33 332 c 0
 33 424 129 451 205 451 c 0
 269 451 355 432 355 349 c 2
 355 147 l 2
 355 118 358 105 385 105 c 0
 389 105 400 109 401 110 c 2
 419 184 l 1
 450 184 l 1
 450 119 428 36 347 36 c 0
 307 36 290 61 263 92 c 0
 262 92 259 92 258 92 c 0
 233 92 173 27 116 27 c 0
 61 27 15 63 15 119 c 0
98 133 m 0
 98 90 130 81 165 81 c 0
 239 81 267 172 267 233 c 1
 213 233 98 205 98 133 c 0
EndSplineSet
EndChar

StartChar: _44
Encoding: 75 -1 34
Width: 371
Flags: HW
LayerCount: 2
Fore
SplineSet
15 184 m 0
 15 276 85 359 181 359 c 0
 277 359 356 283 356 183 c 0
 356 172 353 156 337 156 c 2
 117 156 l 2
 104 156 107 132 107 128 c 0
 107 72 156 36 208 36 c 0
 282 36 286 115 350 115 c 1
 350 35 277 -10 204 -10 c 0
 89 -10 15 68 15 184 c 0
107 234 m 0
 107 229 105 211 117 211 c 2
 276 211 l 1
 276 263 244 312 185 312 c 0
 147 312 107 272 107 234 c 0
EndSplineSet
EndChar

StartChar: _45
Encoding: 76 -1 35
Width: 400
Flags: HW
LayerCount: 2
Fore
SplineSet
15 71 m 0
 15 125 36 145 80 174 c 1
 80 184 l 1
 44 196 15 217 15 257 c 0
 15 332 100 349 158 349 c 0
 331 349 307 205 309 64 c 1
 312 56 320 36 332 36 c 0
 369 36 348 91 373 101 c 1
 389 99 384 66 384 63 c 0
 384 8 362 -10 310 -10 c 0
 267 -10 255 25 218 37 c 1
 184 8 152 -10 107 -10 c 0
 58 -10 15 20 15 71 c 0
106 95 m 0
 106 66 109 36 144 36 c 0
 196 36 227 88 227 134 c 0
 227 155 220 157 200 157 c 0
 162 157 106 137 106 95 c 0
117 234 m 0
 117 233 117 230 117 229 c 0
 115 224 109 198 107 193 c 1
 110 193 123 192 126 192 c 0
 160 192 227 185 227 233 c 0
 227 284 195 304 149 304 c 0
 144 304 121 303 117 303 c 1
 107 299 107 293 107 285 c 0
 107 268 117 252 117 234 c 0
EndSplineSet
EndChar

StartChar: _46
Encoding: 77 -1 36
Width: 326
Flags: HW
LayerCount: 2
Fore
SplineSet
15 321 m 0
 15 353 91 388 108 422 c 0
 113 432 132 476 135 486 c 1
 138 489 150 496 154 496 c 0
 158 496 168 489 168 486 c 2
 168 367 l 2
 168 340 283 365 283 321 c 0
 283 310 279 289 264 289 c 2
 181 289 l 1
 172 275 l 1
 172 273 171 231 171 216 c 0
 171 180 148 45 219 45 c 0
 279 45 242 148 291 148 c 0
 312 148 311 132 311 115 c 0
 311 43 271 -10 200 -10 c 0
 171 -10 94 0 94 46 c 2
 94 275 l 2
 94 299 15 278 15 321 c 0
EndSplineSet
EndChar

StartChar: _47
Encoding: 78 -1 37
Width: 371
Flags: HW
LayerCount: 2
Fore
SplineSet
144 340 m 2
 154.920354221 340 162 296.875135447 162 284 c 1
 164 284 170 283 171 283 c 0
 194 283 222 349 282 349 c 0
 326 349 356 312 356 271 c 0
 356 233 342 220 304 220 c 0
 283 220 263 225 263 252 c 2
 263 257 l 1
 264 260 272 282 272 284 c 0
 272 296 253 295 248 295 c 0
 174 295 171 154 171 110 c 0
 171 102 171 63 171 55 c 1
 186 31 229 37 236 9 c 0
 237 5 230 -7 227 -9 c 1
 203 -11 94 -17 71 -18 c 0
 69 -18 58 -18 55 -18 c 0
 37 -18 23 -16 23 5 c 0
 23 38 90 11 90 126 c 0
 90 183 88 212 80 275 c 1
 67 300 15 287 15 322 c 0
 15 333 17 340 34 340 c 2
 144 340 l 2
EndSplineSet
EndChar

StartChar: _48
Encoding: 79 -1 38
Width: 243
Flags: HW
LayerCount: 2
Fore
SplineSet
15 4 m 0
 15 33 80 21 80 46 c 2
 80 257 l 2
 80 296 15 276 15 312 c 0
 15 318 15 330 25 330 c 2
 153 330 l 1
 154 293 161 120 162 83 c 0
 164 32 228 37 228 -1 c 0
 228 -16 221 -18 199 -18 c 2
 34 -18 l 2
 24 -18 15 -5 15 4 c 0
69 455 m 0
 69 475 91 496 112 496 c 0
 137 496 162 464 162 440 c 0
 162 420 132 404 116 404 c 0
 86 404 69 429 69 455 c 0
EndSplineSet
EndChar

StartChar: _49
Encoding: 80 -1 39
Width: 352
Flags: HW
LayerCount: 2
Fore
SplineSet
16 101 m 1
 15 109 15 148 15 156 c 0
 15 264 77 340 190 340 c 0
 251 340 329 315 329 240 c 0
 329 215 317 183 287 183 c 0
 261 183 235 201 235 229 c 0
 235 245 246 255 246 271 c 0
 246 294 226 303 204 303 c 0
 118 303 97 242 97 167 c 0
 97 91 116 27 199 27 c 0
 292 27 275 120 318 120 c 0
 334 120 337 111 337 97 c 0
 337 20 256 -28 186 -28 c 0
 103 -28 47 29 16 101 c 1
EndSplineSet
EndChar

StartChar: _50
Encoding: 81 -1 40
Width: 362
Flags: HW
LayerCount: 2
Fore
SplineSet
15 161 m 0
 15 248 68 349 172 349 c 0
 262 349 347 282 347 188 c 0
 347 187 349 151 337 151 c 2
 107 151 l 2
 96 151 97 122 97 119 c 0
 97 60 140 18 199 18 c 0
 261 18 277 101 323 101 c 0
 330 101 344 98 346 92 c 0
 362 28 237 -19 198 -19 c 0
 85 -19 15 48 15 161 c 0
98 220 m 0
 98 208 114 193 126 193 c 2
 263 193 l 2
 276 193 273 217 273 221 c 0
 273 267 237 303 190 303 c 0
 148 303 98 265 98 220 c 0
EndSplineSet
EndChar

StartChar: S
Encoding: 18 83 41
Width: 1058
Flags: HW
LayerCount: 2
Fore
SplineSet
222 166 m 0
 200 166 165 0 153 0 c 2
 34 0 l 2
 26 0 25 38 25 53 c 0
 25 56 25 63 25 64 c 0
 26 125 33 407 34 468 c 1
 165 468 l 1
 300 275 l 2
 370 175 526 146 639 146 c 0
 726 146 832 179 832 284 c 0
 832 373 732 426 658 440 c 2
 291 514 l 2
 282 515 180 573 144 596 c 0
 46 660 15 813 15 919 c 0
 15 1150 197 1285 414 1285 c 0
 533 1285 626 1211 704 1128 c 1
 708 1127 l 1
 718 1127 719 1138 722 1147 c 0
 729 1166 761 1256 768 1275 c 1
 777 1284 l 1
 905 1284 l 1
 905 798 l 1
 759 798 l 1
 690 947 557 1101 378 1101 c 0
 287 1101 207 1059 207 961 c 0
 207 897 253 840 318 826 c 2
 777 725 l 2
 937 689 1043 519 1043 363 c 0
 1043 123 878 -28 649 -28 c 0
 533 -28 401 -7 309 73 c 0
 300 81 239 166 222 166 c 0
EndSplineSet
EndChar

StartChar: r
Encoding: 43 114 42
Width: 513
Flags: HW
LayerCount: 2
Fore
SplineSet
385 532 m 0
 454 532 498 492 498 420 c 0
 498 327 347 319 347 418 c 0
 347 442 367 473 367 473 c 1
 290 473 224 422 224 331 c 0
 224 249.666666667 224 168.333333333 224 87 c 1
 309 87 l 1
 309 0 l 1
 15 0 l 1
 15 87 l 1
 99 87 l 1
 99 434 l 1
 15 434 l 1
 15 524 l 1
 214 524 l 1
 204 388 l 1
 237 496 305 532 385 532 c 0
EndSplineSet
EndChar

StartChar: m
Encoding: 38 109 43
Width: 922
Flags: HW
LayerCount: 2
Fore
SplineSet
547 353 m 2
 547 87 l 1
 612 87 l 1
 612 0 l 1
 347 0 l 1
 347 87 l 1
 422 87 l 1
 422 371 l 2
 422 430 378 451 342 451 c 0
 250 451 244 354 244 262 c 2
 244 87 l 1
 309 87 l 1
 309 0 l 1
 15 0 l 1
 15 87 l 1
 119 87 l 1
 119 434 l 1
 15 434 l 1
 15 434 15 478 15 524 c 1
 241 524 l 1
 241 395 l 1
 269 508 327 538 388 538 c 0
 438 538 547 521 547 353 c 2
683 538 m 0
 733 538 842 521 842 353 c 2
 842 87 l 1
 907 87 l 1
 907 0 l 1
 642 0 l 1
 642 87 l 1
 717 87 l 1
 717 371 l 2
 717 430 673 451 637 451 c 0
 545 451 539 354 539 262 c 1
 529 424 l 1
 537 424 l 1
 561 508 618 538 683 538 c 0
EndSplineSet
EndChar

StartChar: o
Encoding: 40 111 44
Width: 554
Flags: HW
LayerCount: 2
Fore
SplineSet
278 -13 m 0
 118 -13 15 106 15 262 c 0
 15 418 117 538 277 538 c 0
 437 538 539 418 539 262 c 0
 539 108 437 -13 278 -13 c 0
277 457 m 0
 167 457 147 343 147 256 c 0
 147 172 178 75 278 75 c 0
 377 75 407 174 407 256 c 0
 407 343 387 457 277 457 c 0
EndSplineSet
EndChar

StartChar: C
Encoding: 3 67 45
Width: 706
Flags: HW
LayerCount: 2
Fore
SplineSet
15 369 m 0
 15 557 139 737 341 737 c 0
 435 737 516 699 587 628 c 1
 617 722 l 1
 685 722 l 1
 685 388 l 1
 608 388 l 1
 587 513 531 647 380 647 c 0
 219 647 180 502 180 367 c 0
 180 226 224 69 392 69 c 0
 537 69 587 188 608 311 c 1
 691 311 l 1
 687 104 548 -14 362 -14 c 0
 145 -14 15 160 15 369 c 0
EndSplineSet
EndChar

StartChar: ydieresis
Encoding: 50 255 46
Width: 938
Flags: HW
LayerCount: 2
Fore
SplineSet
171 133 m 1
 165 294 161 451 152 610 c 1
 122 651 72 646 24 647 c 1
 15 656 l 1
 15 739 l 1
 98 744 187 749 272 749 c 0
 282 749 308 748 308 748 c 1
 318 739 l 1
 336 152 l 2
 338 100 396 95 432 95 c 0
 544 95 611 213 611 317 c 2
 611 601 l 2
 611 609 587 643 584 643 c 2
 455 643 l 1
 455 739 l 1
 494 740 674 747 712 748 c 1
 767 748 l 1
 770 746 776 733 776 730 c 0
 777 721 776 647 776 638 c 0
 777 560 784 193 786 115 c 1
 800 73 923 98 923 78 c 2
 923 -4 l 1
 616 -4 l 1
 616 124 l 1
 602 133 l 1
 562 37 485 -14 384 -14 c 0
 285 -14 196 30 171 133 c 1
EndSplineSet
EndChar

StartChar: d
Encoding: 29 100 47
Width: 615
Flags: HW
LayerCount: 2
Fore
SplineSet
232 -13 m 0
 102 -13 15 106 15 262 c 0
 15 418 105 538 241 538 c 0
 299 538 347 509 380 460 c 1
 380 660 l 1
 276 660 l 1
 276 750 l 1
 505 750 l 1
 505 87 l 1
 600 87 l 1
 600 0 l 1
 380 0 l 1
 380 92 l 1
 341 14 285 -13 232 -13 c 0
261 457 m 0
 167 457 147 343 147 256 c 0
 147 172 178 75 262 75 c 0
 343 75 380 153 380 285 c 0
 380 366 352 457 261 457 c 0
EndSplineSet
EndChar

StartChar: M
Encoding: 12 77 48
Width: 1043
Flags: HW
LayerCount: 2
Fore
SplineSet
24 0 m 1
 24 29 24 58 24 87 c 1
 152 87 l 1
 152 632 l 1
 15 632 l 1
 15 722 l 1
 369 722 l 1
 518 323 l 1
 528 289 l 1
 535 315 l 1
 671 722 l 1
 1021 722 l 1
 1021 632 l 1
 884 632 l 1
 884 87 l 1
 1028 87 l 1
 1028 0 l 1
 633 0 l 1
 633 87 l 1
 740 87 l 1
 740 618 l 1
 550 26 l 2
 542 1 524 0 512 0 c 0
 496 0 483 4 476 23 c 2
 280 570 l 1
 262 626 l 1
 262 446.333333333 262 266.666666667 262 87 c 1
 385 87 l 1
 385 0 l 1
 24 0 l 1
EndSplineSet
EndChar

StartChar: B
Encoding: 2 66 49
Width: 717
Flags: HW
LayerCount: 2
Fore
SplineSet
376 0 m 2
 15 0 l 1
 15 88 l 1
 134 88 l 1
 134 632 l 1
 15 632 l 1
 15 722 l 1
 376 722 l 2
 489 722 676 693 662 523 c 0
 656 450 608 408 527 385 c 1
 630 358 702 305 702 201 c 0
 702 10 505 0 376 0 c 2
279 325 m 1
 279 88 l 1
 425 88 547 73 547 205 c 0
 547 309 457 326 358 326 c 0
 332 326 305 325 279 325 c 1
279 632 m 1
 279 426 l 1
 358 426 l 2
 437 426 507 433 507 519 c 0
 507 641 404 631 279 632 c 1
EndSplineSet
EndChar

StartChar: c
Encoding: 28 99 50
Width: 525
Flags: HW
LayerCount: 2
Fore
SplineSet
273 -13 m 0
 135 -13 15 91 15 252 c 0
 15 401 112 539 287 539 c 0
 379 539 497 495 497 369 c 0
 497 336 473 296 421 296 c 0
 382 296 352 317 352 353 c 0
 352 407 404 423 404 423 c 1
 395 440 352 459 300 459 c 0
 201 459 159 371 159 270 c 0
 159 160 202 79 306 79 c 0
 412 79 431 152 446 188 c 1
 510 164 l 1
 486 59 393 -13 273 -13 c 0
EndSplineSet
EndChar

StartChar: h
Encoding: 33 104 51
Width: 717
Flags: HW
LayerCount: 2
Fore
SplineSet
597 353 m 6
 597 87 l 5
 702 87 l 5
 702 0 l 5
 377 0 l 5
 377 87 l 5
 472 87 l 5
 472 371 l 6
 472 430 418 451 372 451 c 4
 253 451 244 354 244 262 c 6
 244 87 l 5
 339 87 l 5
 339 0 l 5
 15 0 l 5
 15 87 l 5
 119 87 l 5
 119 660 l 5
 15 660 l 5
 15 660 15 704 15 750 c 5
 244 750 l 5
 244 407 l 5
 277 508 345 538 418 538 c 4
 474 538 597 521 597 353 c 6
EndSplineSet
EndChar

StartChar: c.alt
Encoding: 82 -1 52
Width: 515
Flags: HW
LayerCount: 2
Fore
SplineSet
436 188 m 1
 500 164 l 1
 477 59 388 -13 273 -13 c 0
 135 -13 15 87 15 242 c 0
 15 416 110 539 279 539 c 0
 371 539 488 502 488 390 c 0
 488 352 470 304 425 304 c 0
 386 304 347 331 347 373 c 0
 347 397 363 412 363 436 c 0
 363 471 333 483 300 483 c 0
 171 483 139 393 139 280 c 0
 139 166 168 70 292 70 c 0
 398 70 421 149 436 188 c 1
EndSplineSet
EndChar

StartChar: _58
Encoding: 83 -1 53
Width: 1023
Flags: HW
LayerCount: 2
Fore
SplineSet
15.326171875 0 m 0
 15.326171875 77 95.326171875 24 130.326171875 71 c 0
 178.326171875 135 159.326171875 382 159.326171875 481 c 0
 159.326171875 502 158.326171875 601 158.326171875 622 c 1
 144.326171875 721 25.326171875 594 25.326171875 763 c 1
 395.326171875 763 l 1
 483.326171875 410 l 1
 497.326171875 382 l 1
 512.326171875 391 520.326171875 409 526.326171875 424 c 0
 543.326171875 471 622.326171875 688 639.326171875 735 c 0
 640.326171875 738 650.326171875 748 653.326171875 749 c 0
 716.326171875 770 777.326171875 764 844.326171875 764 c 0
 862.326171875 764 946.326171875 764 964.326171875 763 c 1
 1009.32617188 782 1008.32617188 744 1008.32617188 724 c 0
 1008.32617188 632 900.326171875 707 865.326171875 636 c 0
 808.326171875 522 835.326171875 345 835.326171875 219 c 0
 835.326171875 197 836.326171875 93 837.326171875 71 c 1
 861.326171875 34 932.326171875 31 964.326171875 28 c 1
 964.326171875 -42 l 1
 540.326171875 -42 l 2
 527.326171875 -42 525.326171875 -30 525.326171875 -22 c 0
 525.326171875 91 646.326171875 -2 667.326171875 71 c 0
 706.326171875 208 696.326171875 360 696.326171875 502 c 0
 696.326171875 518 696.326171875 592 695.326171875 608 c 1
 681.326171875 579 l 1
 483.326171875 -14 l 2
 476.326171875 -34 457.326171875 -45 438.326171875 -45 c 0
 435.326171875 -45 427.326171875 -43 427.326171875 -42 c 2
 271.326171875 608 l 1
 257.326171875 594 l 1
 257.326171875 85 l 2
 257.326171875 32 358.326171875 65 358.326171875 4 c 0
 358.326171875 0 362.326171875 -42 342.326171875 -42 c 2
 31.326171875 -42 l 2
 11.326171875 -42 15.326171875 -5 15.326171875 0 c 0
EndSplineSet
EndChar

StartChar: _64
Encoding: 84 -1 54
Width: 593
Flags: HW
LayerCount: 2
Fore
SplineSet
111 26 m 0
 74 26 91 -40 49 -40 c 0
 29 -40 15 -37 15 -15 c 0
 15 -12 15 -2 15 0 c 0
 17 42 26 239 28 281 c 1
 42 293 51 295 66 295 c 0
 108 295 128 37 335 37 c 0
 397 37 465 71 465 139 c 0
 465 319 39 213 39 469 c 0
 39 602 132 680 266 680 c 0
 339 680 383 625 450 625 c 0
 480 625 474 678 513 678 c 0
 525 678 539 674 539 659 c 2
 539 652 l 1
 537 617 528 456 526 422 c 1
 527 398 516 395 502 395 c 0
 455 395 398 602 250 602 c 0
 198 602 142 575 142 517 c 0
 142 484 159 458 194 447 c 2
 475 358 l 2
 541 337 578 239 578 179 c 0
 578 48 465 -52 336 -52 c 0
 253 -52 160 26 111 26 c 0
EndSplineSet
EndChar

StartChar: H
Encoding: 7 72 55
Width: 839
Flags: HW
LayerCount: 2
Fore
SplineSet
824 87 m 1
 824 0 l 1
 447 0 l 1
 447 87 l 1
 560 87 l 1
 560 331 l 1
 279 331 l 1
 279 87 l 1
 391 87 l 1
 391 0 l 1
 15 0 l 1
 15 87 l 1
 134 87 l 1
 134 632 l 1
 15 632 l 1
 15 722 l 1
 391 722 l 1
 391 632 l 1
 279 632 l 1
 279 407 l 1
 560 407 l 1
 560 632 l 1
 447 632 l 1
 447 722 l 1
 824 722 l 1
 824 632 l 1
 705 632 l 1
 705 87 l 1
 824 87 l 1
EndSplineSet
EndChar

StartChar: I
Encoding: 8 73 56
Width: 406
Flags: HW
LayerCount: 2
Fore
SplineSet
279 87 m 1
 391 87 l 1
 391 0 l 1
 15 0 l 1
 15 87 l 1
 134 87 l 1
 134 632 l 1
 15 632 l 1
 15 722 l 1
 391 722 l 1
 391 632 l 1
 279 632 l 1
 279 87 l 1
EndSplineSet
EndChar

StartChar: J
Encoding: 9 74 57
Width: 655
Flags: HW
LayerCount: 2
Fore
SplineSet
15 184 m 0
 15 194 16 244 17 254 c 1
 32 300 66 300 102 300 c 0
 161 300 200 260 200 198 c 0
 200 148 143 145 143 106 c 0
 143 79 188 70 208 70 c 0
 387 70 328 404 328 516 c 0
 328 536 328 630 328 650 c 0
 328 722 233 718 186 721 c 1
 186 806 l 1
 610 806 l 2
 644 806 640 787 640 765 c 0
 640 672 522 754 497 678 c 1
 486 499 485 320 469 141 c 1
 424 31 332 -14 215 -14 c 0
 92 -14 15 68 15 184 c 0
EndSplineSet
EndChar

StartChar: K
Encoding: 10 75 58
Width: 921
Flags: HW
LayerCount: 2
Fore
SplineSet
481 0 m 1
 480 5 476 30 476 35 c 0
 476 110 554 52 566 113 c 0
 566 115 556 145 552 155 c 0
 524 215 455 353 453 353 c 2
 425 353 l 2
 417 353 358 294 340 268 c 0
 324 246 325 195 325 168 c 0
 325 44 450 120 450 0 c 1
 15 0 l 1
 15 71 l 1
 88 76 170 78 170 170 c 2
 170 678 l 2
 170 689 128 707 128 707 c 1
 113 710 44 720 29 721 c 1
 29 791 l 1
 411 791 l 2
 437 791 442 756 442 740 c 0
 442 688 340 725 340 678 c 2
 340 410 l 1
 347 413 377 433 382 438 c 0
 413 467 551 605 580 636 c 1
 586 638 596 658 594 664 c 0
 574 747 473 672 473 796 c 1
 517 796 748 793 792 791 c 0
 809 791 889 781 905 777 c 1
 906 774 906 759 906 756 c 0
 906 736 906 724 891 707 c 1
 876 703 807 683 792 678 c 0
 786 676 766 666 764 664 c 2
 580 495 l 2
 580 494 579 486 579 483 c 0
 579 461 584 444 594 424 c 0
 619 375 738 147 764 99 c 1
 848 48 897 109 897 -17 c 1
 758 -17 620 -11 481 0 c 1
EndSplineSet
EndChar

StartChar: L
Encoding: 11 76 59
Width: 798
Flags: HW
LayerCount: 2
Fore
SplineSet
30.1875 -14 m 1
 12.1875 -10 15.1875 9 15.1875 21 c 0
 15.1875 123 185.1875 -11 185.1875 184 c 2
 185.1875 664 l 2
 185.1875 709 44.1875 676 44.1875 707 c 2
 44.1875 777 l 1
 510.1875 777 l 2
 530.1875 777 526.1875 740 526.1875 735 c 0
 526.1875 724 530.1875 696 510.1875 693 c 0
 503.1875 692 399.1875 691 369.1875 664 c 1
 346.1875 564 353.1875 415 353.1875 325 c 0
 353.1875 291 354.1875 133 355.1875 99 c 1
 362.1875 88 386.1875 71 397.1875 71 c 2
 567.1875 71 l 2
 581.1875 71 643.1875 106 652.1875 127 c 2
 736.1875 339 l 1
 783.1875 339 l 1
 783.1875 226 781.1875 100 765.1875 -14 c 1
 734.1875 -33 707.1875 -29 674.1875 -29 c 0
 660.1875 -29 615.1875 -28 609.1875 -28 c 0
 522.1875 -27 117.1875 -17 30.1875 -14 c 1
EndSplineSet
EndChar

StartChar: N
Encoding: 13 78 60
Width: 809
Flags: HW
LayerCount: 2
Fore
SplineSet
27 89 m 0
 27 125 142 114 142 140 c 2
 142 626 l 2
 142 636 104 652 104 652 c 1
 91 656 28 674 15 677 c 1
 15 741 l 1
 297 741 l 1
 577 307 l 1
 590 307 l 1
 590 600 l 2
 590 699 457 630 457 741 c 1
 794 741 l 1
 794 677 l 1
 779 674 679 663 679 613 c 2
 679 38 l 1
 564 38 l 1
 264 530 l 1
 245 511 l 1
 245 191 l 2
 245 126 325 109 373 102 c 1
 373 98 374 80 374 76 c 0
 374 72 378 38 360 38 c 2
 40 38 l 2
 36 38 27 74 27 89 c 0
245 553 m 0
 242 553 242 546 245 546 c 0
 248 546 248 553 245 553 c 0
EndSplineSet
EndChar

StartChar: O
Encoding: 14 79 61
Width: 730
Flags: HW
LayerCount: 2
Fore
SplineSet
365 642 m 1
 241 642 179 502 179 362 c 0
 179 222 241 82 365 82 c 0
 489 82 551 220 551 360 c 0
 551 499 489 639 365 642 c 1
365 -13 m 0
 131 -13 15 174 15 362 c 0
 15 549 131 737 365 737 c 0
 598 737 715 549 715 362 c 0
 715 174 598 -13 365 -13 c 0
EndSplineSet
EndChar

StartChar: P
Encoding: 15 80 62
Width: 687
Flags: HW
LayerCount: 2
Fore
SplineSet
15 722 m 1
 376 722 l 2
 493 722 672 704 672 513 c 0
 672 321 496 307 329 307 c 2
 279 307 l 1
 279 87 l 1
 401 87 l 1
 401 0 l 1
 15 0 l 1
 15 87 l 1
 134 87 l 1
 134 632 l 1
 15 632 l 1
 15 722 l 1
279 632 m 1
 279 387 l 1
 299 387 318 386 338 386 c 0
 432 386 517 396 517 509 c 0
 517 642 410 631 279 632 c 1
EndSplineSet
EndChar

StartChar: Q
Encoding: 16 81 63
Width: 828
Flags: HW
LayerCount: 2
Fore
SplineSet
502 13 m 1
 444 -14 413 -15 355 -15 c 0
 146 -15 15 157 15 355 c 0
 15 551 162 717 361 717 c 0
 553 717 695 561 695 374 c 0
 695 275 616 158 616 108 c 0
 616 83 660 63 682 63 c 0
 766 63 684 184 813 184 c 1
 813 86 792 -78 660 -78 c 0
 596 -78 545 -30 502 13 c 1
257 130 m 0
 257 72 307 75 355 75 c 0
 369 75 451 69 451 108 c 0
 451 160 383 205 335 205 c 0
 296 205 257 168 257 130 c 0
355 627 m 0
 267 627 182 576 182 473 c 2
 182 213 l 1
 236 213 269 295 334 295 c 0
 404 295 454 229 515 229 c 0
 516 229 525 230 527 230 c 1
 533 273 540 320 540 365 c 0
 540 493 500 627 355 627 c 0
EndSplineSet
EndChar

StartChar: R
Encoding: 17 82 64
Width: 803
Flags: HW
LayerCount: 2
Fore
SplineSet
285.1875 151 m 0
 285.1875 144 283.1875 80 298.1875 76 c 1
 426.1875 51 l 1
 426.1875 51 428.1875 37 428.1875 31 c 0
 428.1875 28 432.1875 -13 413.1875 -13 c 2
 30.1875 -13 l 2
 12.1875 -13 15.1875 23 15.1875 27 c 0
 15.1875 105 134.1875 23 145.1875 102 c 1
 156.1875 254 159.1875 354 159.1875 497 c 0
 159.1875 522 158.1875 586 157.1875 588 c 2
 132.1875 620 l 1
 30.1875 620 l 1
 30.1875 690 l 1
 490.1875 690 l 2
 595.1875 690 696.1875 609 696.1875 501 c 0
 696.1875 368 585.1875 380 541.1875 307 c 1
 612.1875 247 627.1875 180 643.1875 89 c 1
 651.1875 77 660.1875 63 675.1875 63 c 0
 750.1875 63 685.1875 193 788.1875 193 c 1
 788.1875 74 767.1875 -26 630.1875 -26 c 0
 418.1875 -26 533.1875 294 439.1875 294 c 2
 298.1875 294 l 2
 296.1875 294 288.1875 222 285.1875 191 c 0
 285.1875 189 285.1875 161 285.1875 151 c 0
296.1875 462 m 0
 296.1875 446 297.1875 399 298.1875 396 c 1
 311.1875 383 l 2
 312.1875 383 337.1875 382 347.1875 382 c 0
 451.1875 382 542.1875 389 542.1875 509 c 0
 542.1875 607 437.1875 614 360.1875 614 c 0
 277.1875 614 296.1875 529 296.1875 462 c 0
EndSplineSet
EndChar

StartChar: T
Encoding: 19 84 65
Width: 732
Flags: HW
LayerCount: 2
Fore
SplineSet
140 35 m 1
 140 112 l 1
 279 112 l 1
 279 676 l 2
 279 680 270 690 266 690 c 1
 264 691 233 692 222 692 c 0
 108 692 82 553 56 467 c 1
 54 467 45 466 43 466 c 0
 34 466 15 466 15 481 c 2
 15 774 l 1
 698 774 l 2
 701 774 711 725 712 704 c 0
 713 669 717 503 717 467 c 1
 656 467 l 1
 609 620 612 682 447 682 c 1
 447 112 l 1
 586 112 l 1
 586 17 l 1
 468 17 272 15 140 35 c 1
EndSplineSet
EndChar

StartChar: U
Encoding: 20 85 66
Width: 941
Flags: HW
LayerCount: 2
Fore
SplineSet
15 779 m 1
 146 779 340 779 480 760 c 1
 481 756 482 736 482 732 c 0
 482 645 341 717 341 649 c 2
 341 244 l 2
 341 142 414 104 501 104 c 0
 569 104 676 122 676 216 c 2
 676 635 l 2
 676 729 531 613 531 760 c 1
 912 760 l 2
 917 760 926 750 926 746 c 0
 926 737 917 698 912 690 c 1
 905 690 803 689 773 662 c 1
 742 409 860 -7 480 -7 c 0
 394 -7 195 54 195 175 c 2
 195 635 l 2
 195 736 15 621 15 779 c 1
EndSplineSet
EndChar

StartChar: V
Encoding: 21 86 67
Width: 909
Flags: HW
LayerCount: 2
Fore
SplineSet
16.3515625 690 m 1
 16.3515625 695 15.3515625 714 15.3515625 718 c 0
 15.3515625 729 11.3515625 756 30.3515625 760 c 1
 50.3515625 760 143.3515625 761 163.3515625 761 c 0
 271.3515625 761 339.3515625 762 448.3515625 746 c 1
 448.3515625 669 l 1
 337.3515625 669 l 2
 326.3515625 669 322.3515625 651 322.3515625 642 c 0
 322.3515625 641 323.3515625 636 323.3515625 635 c 0
 341.3515625 580 429.3515625 326 448.3515625 272 c 1
 452.3515625 264 470.3515625 214 490.3515625 203 c 1
 630.3515625 607 l 1
 630.3515625 607 630.3515625 612 630.3515625 614 c 0
 630.3515625 710 499.3515625 606 499.3515625 746 c 1
 894.3515625 746 l 1
 894.3515625 676 l 1
 859.3515625 673 774.3515625 655 755.3515625 607 c 2
 518.3515625 -7 l 1
 393.3515625 -7 l 1
 170.3515625 593 l 2
 140.3515625 672 108.3515625 694 16.3515625 690 c 1
EndSplineSet
EndChar

StartChar: X
Encoding: 23 88 68
Width: 962
Flags: HW
LayerCount: 2
Fore
SplineSet
471.3515625 28 m 0
 471.3515625 34 475.3515625 58 476.3515625 63 c 1
 504.3515625 65 575.3515625 60 575.3515625 105 c 0
 575.3515625 107 574.3515625 117 574.3515625 119 c 1
 560.3515625 138 491.3515625 226 476.3515625 244 c 0
 472.3515625 249 453.3515625 268 448.3515625 272 c 1
 431.3515625 254 353.3515625 166 337.3515625 147 c 0
 324.3515625 132 322.3515625 121 322.3515625 104 c 0
 322.3515625 39 446.3515625 110 446.3515625 -7 c 1
 30.3515625 -7 l 2
 11.3515625 -7 15.3515625 33 15.3515625 37 c 0
 15.3515625 85 185.3515625 135 225.3515625 175 c 0
 240.3515625 189 328.3515625 287 351.3515625 314 c 0
 361.3515625 326 379.3515625 344 379.3515625 363 c 0
 379.3515625 364 379.3515625 369 379.3515625 370 c 0
 350.3515625 408 213.3515625 583 184.3515625 621 c 0
 173.3515625 634 44.3515625 676 44.3515625 676 c 1
 44.3515625 746 l 1
 448.3515625 746 l 1
 448.3515625 665 l 1
 432.3515625 665 378.3515625 663 378.3515625 643 c 0
 378.3515625 629 385.3515625 618 393.3515625 607 c 0
 416.3515625 573 474.3515625 495 476.3515625 495 c 2
 490.3515625 495 l 2
 507.3515625 495 589.3515625 587 589.3515625 620 c 0
 589.3515625 685 490.3515625 625 490.3515625 712 c 0
 490.3515625 720 492.3515625 732 504.3515625 732 c 2
 894.3515625 732 l 1
 894.3515625 662 l 2
 894.3515625 639 757.3515625 623 727.3515625 593 c 0
 677.3515625 543 560.3515625 416 560.3515625 412 c 2
 560.3515625 384 l 1
 797.3515625 91 l 2
 851.3515625 24 947.3515625 103 947.3515625 -20 c 1
 532.3515625 -20 l 2
 478.3515625 -20 471.3515625 -15 471.3515625 28 c 0
EndSplineSet
EndChar

StartChar: Y
Encoding: 24 89 69
Width: 943
Flags: HW
LayerCount: 2
Fore
SplineSet
211.3515625 7 m 0
 211.3515625 11 208.3515625 56 225.3515625 56 c 2
 337.3515625 56 l 1
 365.3515625 91 l 1
 365.3515625 286 l 1
 156.3515625 607 l 2
 119.3515625 663 15.3515625 616 15.3515625 688 c 0
 15.3515625 699 11.3515625 728 30.3515625 732 c 1
 41.3515625 732 90.3515625 733 100.3515625 733 c 0
 234.3515625 733 314.3515625 728 476.3515625 718 c 1
 476.3515625 642 l 1
 365.3515625 642 l 2
 355.3515625 642 350.3515625 622 350.3515625 613 c 0
 350.3515625 612 351.3515625 607 351.3515625 607 c 1
 490.3515625 384 l 2
 491.3515625 383 495.3515625 383 497.3515625 383 c 0
 528.3515625 383 644.3515625 549 644.3515625 600 c 0
 644.3515625 646 546.3515625 649 532.3515625 649 c 1
 532.3515625 718 l 1
 928.3515625 718 l 1
 928.3515625 599 849.3515625 638 769.3515625 579 c 1
 737.3515625 535 591.3515625 330 560.3515625 286 c 0
 529.3515625 242 531.3515625 184 531.3515625 133 c 0
 531.3515625 122 532.3515625 74 532.3515625 63 c 1
 560.3515625 39 642.3515625 36 658.3515625 35 c 1
 658.3515625 -34 l 1
 225.3515625 -34 l 2
 206.3515625 -34 211.3515625 2 211.3515625 7 c 0
EndSplineSet
EndChar

StartChar: Z
Encoding: 25 90 70
Width: 756
Flags: HW
LayerCount: 2
Fore
SplineSet
15 -48 m 1
 15 77 l 1
 531 607 l 1
 294 607 l 2
 291 607 271 597 266 593 c 0
 197 535 176 491 141 398 c 1
 95 398 l 1
 95 492 96 608 113 704 c 1
 138 708 255 718 280 718 c 0
 349 718 671 708 740 704 c 1
 740 698 741 669 741 662 c 0
 741 642 743 596 726 579 c 2
 224 77 l 1
 224 49 l 1
 461 49 l 2
 617 49 586 291 690 291 c 1
 690 255 686 85 684 49 c 0
 684 37 674 -21 670 -34 c 0
 669 -39 660 -48 656 -48 c 2
 15 -48 l 1
EndSplineSet
EndChar

StartChar: cedilla
Encoding: 47 184 71
Width: 165
Flags: HW
LayerCount: 2
Fore
SplineSet
150 -115 m 2
 150 -156 29 -187 29 -187 c 1
 15 -165 l 1
 69 -138 l 1
 69 -138 70 -134 70 -132 c 0
 70 -108 41 -97 41 -72 c 0
 41 0 146 1 150 0 c 1
 150 -115 l 2
EndSplineSet
EndChar

StartChar: W
Encoding: 22 87 72
Width: 1243
Flags: HW
LayerCount: 2
Fore
SplineSet
28 862 m 1
 26 871 15 904 15 923 c 0
 15 933 16 937 28 943 c 1
 48 943 137 944 156 944 c 0
 240 944 310 947 392 929 c 1
 394 924 397 901 397 896 c 0
 397 829 337 874 311 822 c 1
 329 771 414 535 432 485 c 0
 438 470 446 454 459 444 c 1
 473 454 481 470 486 485 c 0
 499 519 555 679 567 714 c 1
 567 718 569 737 569 741 c 0
 569 870 431 818 431 929 c 1
 847 929 l 1
 847 811 714 889 714 801 c 0
 714 798 715 784 715 781 c 1
 733 733 818 506 836 458 c 0
 841 445 842 430 857 430 c 0
 871 430 872 445 877 458 c 0
 892 500 958 698 971 741 c 1
 971 747 972 775 972 781 c 0
 972 848 953 843 877 862 c 1
 871 875 863 893 863 910 c 0
 863 917 865 929 877 929 c 2
 1214 929 l 2
 1230 929 1228 903 1228 896 c 0
 1228 823 1103 849 1065 741 c 2
 890 242 l 1
 877 215 l 2
 876 215 853 213 844 213 c 0
 828 213 792 205 783 229 c 2
 634 593 l 1
 621 593 l 1
 473 215 l 2
 472 215 454 213 446 213 c 0
 429 213 401 207 392 229 c 2
 150 822 l 1
 135 856 42 861 28 862 c 1
EndSplineSet
EndChar

StartChar: ampersand
Encoding: 1 38 73
Width: 777
Flags: HW
LayerCount: 2
Fore
SplineSet
15 359 m 0
 15 496 101 510 178 606 c 1
 168 738 189 877 350 877 c 0
 440 877 489 833 489 740 c 0
 489 661 438 614 367 579 c 1
 367 552 l 2
 367 549 414 455 434 418 c 0
 440 407 445 403 454 403 c 0
 493 403 530 479 530 517 c 0
 530 581 460 537 460 620 c 1
 762 620 l 1
 762 517 500 465 500 330 c 0
 500 286 574 256 609 256 c 0
 700 256 663 397 760 397 c 1
 760 258 690 160 552 160 c 0
 492 160 449 216 401 216 c 0
 340 216 279 160 210 160 c 0
 95 160 15 246 15 359 c 0
137 405 m 0
 137 335 173 242 258 242 c 0
 272 242 370 267 353 296 c 2
 232 512 l 1
 232 512 224 513 221 513 c 0
 161 513 137 454 137 405 c 0
285 741 m 0
 285 705 289 659 333 659 c 0
 382 659 408 694 408 741 c 0
 408 781 396 809 354 809 c 0
 306 809 285 789 285 741 c 0
EndSplineSet
EndChar

StartChar: AE
Encoding: 48 198 74
Width: 1190
Flags: HW
LayerCount: 2
Fore
SplineSet
325.072265625 323 m 0
 325.072265625 251 440.072265625 292 440.072265625 202 c 1
 30.072265625 202 l 2
 13.072265625 202 15.072265625 229 15.072265625 236 c 0
 15.072265625 247 12.757304431 266.901216825 30.072265625 269 c 0
 111.757304431 278.901216825 187.072265625 305 232.072265625 377 c 2
 474.072265625 768 l 1
 474.072265625 768 475.072265625 781 475.072265625 786 c 0
 475.072265625 792 476.072265625 828 461.072265625 828 c 2
 312.072265625 828 l 2
 294.426799491 828 294.072265625 898.844113371 294.072265625 918 c 1
 572.072265625 918 914.072265625 910 1174.07226562 902 c 1
 1174.07226562 899 1175.07226562 885 1175.07226562 882 c 0
 1175.07226562 877 1174.07226562 863 1174.07226562 862 c 0
 1173.04565482 825.042011127 1174.50165452 605 1141.07226562 605 c 0
 1107.07226562 605 1095.07226562 773 1013.07226562 808 c 0
 944.072265625 837 845.072265625 816 784.072265625 816 c 1
 784.072265625 597 l 1
 956.072265625 597 911.072265625 718 986.072265625 718 c 1
 986.072265625 377 l 1
 945.072265625 377 l 1
 934.072265625 459 889.072265625 513 806.072265625 513 c 0
 756.072265625 513 769.072265625 439 769.072265625 404 c 0
 769.072265625 290 792.072265625 268 905.072265625 268 c 0
 1054.07226562 268 1098.07226562 342 1134.07226562 485 c 1
 1174.07226562 485 l 1
 1174.07226562 202 l 1
 1161.07226562 189 l 1
 1158.07226562 188 1076.07226562 187 1045.07226562 187 c 0
 842.072265625 187 692.072265625 191 474.072265625 202 c 1
 474.072265625 256 l 1
 622.072265625 286 l 1
 622.072265625 512 l 1
 434.072265625 498 l 1
 408.168624287 498 338.775712192 361.252034354 326.072265625 337 c 0
 326.072265625 335 325.072265625 325 325.072265625 323 c 0
488.072265625 606 m 2
 488.072265625 593 l 1
 622.072265625 593 l 1
 622.072265625 808 l 1
 581.558254829 783.691593522 488.072265625 608.36264516 488.072265625 606 c 2
EndSplineSet
EndChar

StartChar: OE
Encoding: 51 338 75
Width: 1094
Flags: HW
LayerCount: 2
Fore
SplineSet
1079 875 m 1
 1079 862 l 1
 1077 822 1068 633 1066 593 c 1
 1063 589 1044 579 1039 579 c 0
 1004 579 1049 796 776 796 c 0
 763 796 702 795 689 795 c 1
 665 708 679 683 679 584 c 1
 786 584 807 589 850 700 c 1
 893 700 l 1
 893 594 885 463 877 364 c 1
 837 364 l 1
 827 437 786 499 708 499 c 0
 700 499 675 502 675 485 c 2
 675 269 l 1
 702 256 l 2
 706 255 757 254 774 254 c 0
 979 254 965 290 1025 471 c 0
 1027 475 1036 485 1039 485 c 0
 1080 485 1079 482 1079 461 c 0
 1079 458 1079 446 1079 444 c 0
 1075 364 1066 175 1066 175 c 1
 1039 162 l 2
 1035 161 949 160 916 160 c 0
 697 160 534 165 298 175 c 1
 130 194 15 365 15 525 c 0
 15 722 166 861 352 889 c 1
 388 889 558 890 594 890 c 0
 774 890 900 892 1079 875 c 1
176 525 m 0
 176 401 207 255 359 255 c 0
 520 255 528 420 528 545 c 0
 528 675 523 796 369 796 c 0
 214 796 176 659 176 525 c 0
EndSplineSet
EndChar

StartChar: j
Encoding: 35 106 76
Width: 369
Flags: HW
LayerCount: 2
Fore
SplineSet
222 711 m 0
 222 747 252 777 288 777 c 0
 324 777 354 747 354 711 c 0
 354 675 324 645 288 645 c 0
 252 645 222 675 222 711 c 0
224 -16 m 2
 224 434 l 1
 140 434 l 1
 140 434 140 487 140 524 c 1
 349 524 l 1
 349 -1 l 2
 349 -108 242 -158 145 -158 c 0
 52 -158 15 -113 15 -74 c 0
 15 -42 39 -13 77 -13 c 0
 113 -13 138 -39 138 -65 c 0
 138 -79 132 -94 124 -107 c 1
 124 -107 142 -110 153 -110 c 0
 202 -110 224 -56 224 -16 c 2
EndSplineSet
EndChar

StartChar: k
Encoding: 36 107 77
Width: 662
Flags: HW
LayerCount: 2
Fore
SplineSet
239 750 m 1
 239 282 l 1
 296.337748512 332.995584821 352.271679318 385.394987349 409 437 c 1
 310 437 l 1
 310 524 l 1
 637 524 l 1
 637 437 l 1
 534 437 l 1
 394 308 l 1
 554 87 l 1
 647 87 l 1
 647 0 l 1
 350 0 l 1
 350 87 l 1
 429 87 l 1
 319 250 l 1
 239 180 l 1
 239 87 l 1
 312 87 l 1
 312 0 l 1
 15 0 l 1
 15 87 l 1
 114 87 l 1
 114 660 l 1
 15 660 l 1
 15 750 l 1
 239 750 l 1
EndSplineSet
EndChar

StartChar: f
Encoding: 31 102 78
Width: 488
Flags: HW
LayerCount: 2
Fore
SplineSet
34 456 m 1
 34 524 l 1
 124 524 l 1
 124 649 190 777 337 777 c 0
 434 777 473 717 473 666 c 0
 473 620 444 578 404 578 c 0
 369 578 339 595 339 630 c 0
 339 682 379 687 379 687 c 1
 378 710 356 722 331 722 c 0
 295 722 249 686 249 604 c 2
 249 524 l 1
 358 524 l 1
 358 456 l 1
 249 456 l 1
 249 87 l 1
 342 87 l 1
 342 0 l 1
 15 0 l 1
 15 87 l 1
 124 87 l 1
 124 456 l 1
 34 456 l 1
EndSplineSet
EndChar

StartChar: g
Encoding: 32 103 79
Width: 619
Flags: HW
LayerCount: 2
Fore
SplineSet
15 -57 m 0
 15 -11 36 22 115 47 c 1
 54 68 32 103 32 146 c 0
 32 217 98 253 98 253 c 1
 62 292 40 336 40 373 c 0
 40 465 129 539 252 539 c 0
 320 539 388 514 417 475 c 1
 417 475 478 526 523 526 c 0
 580 526 604 491 604 458 c 0
 604 428 584 400 550 400 c 0
 520 400 498 423 498 451 c 0
 498 460 500 469 505 478 c 1
 476 474 437 443 437 443 c 1
 442 432 459 416 459 394 c 0
 459 323 426 217 246 217 c 0
 237 217 208 221 180 221 c 0
 148 221 118 216 118 194 c 0
 118 180 129 170 155 170 c 2
 357 170 l 2
 466 170 507 59 507 2 c 0
 507 -135 394 -188 270 -188 c 0
 161 -188 15 -172 15 -57 c 0
107 -27 m 0
 107 -69 138 -96 269 -96 c 0
 376 -96 405 -57 405 -30 c 0
 405 34 359 43 311 43 c 0
 271 43 213 42 155 42 c 1
 116 23 107 5 107 -27 c 0
253 285 m 0
 342 285 353 330 353 374 c 0
 353 421 337 469 253 469 c 0
 179 469 153 421 153 374 c 0
 153 330 174 285 253 285 c 0
EndSplineSet
EndChar

StartChar: b
Encoding: 27 98 80
Width: 623
Flags: HW
LayerCount: 2
Fore
SplineSet
15 750 m 1
 243 750 l 1
 243 460 l 1
 276 509 324 538 382 538 c 0
 518 538 608 418 608 262 c 0
 608 106 521 -13 391 -13 c 0
 326 -13 262 18 221 77 c 1
 183 0 l 1
 118 0 l 1
 118 660 l 1
 15 660 l 1
 15 750 l 1
362 457 m 0
 271 457 243 366 243 285 c 0
 243 153 280 75 361 75 c 0
 445 75 476 172 476 256 c 0
 476 343 456 457 362 457 c 0
EndSplineSet
EndChar

StartChar: ccedilla
Encoding: 49 231 81
Width: 525
Flags: HW
LayerCount: 2
Fore
SplineSet
446 188 m 1
 510 164 l 1
 486 59 393 -13 273 -13 c 0
 135 -13 15 91 15 252 c 0
 15 401 112 539 287 539 c 0
 379 539 497 495 497 369 c 0
 497 336 473 296 421 296 c 0
 382 296 352 317 352 353 c 0
 352 407 404 423 404 423 c 1
 395 440 352 459 300 459 c 0
 201 459 159 371 159 270 c 0
 159 160 202 79 306 79 c 0
 412 79 431 152 446 188 c 1
334 0 m 1
 334 -115 l 2
 334 -156 213 -187 213 -187 c 1
 199 -165 l 1
 253 -138 l 1
 253 -138 254 -134 254 -132 c 0
 254 -108 225 -97 225 -72 c 0
 225 0 330 1 334 0 c 1
EndSplineSet
EndChar

StartChar: p
Encoding: 41 112 83
Width: 615
Flags: HW
LayerCount: 2
Fore
SplineSet
15 -196 m 1
 15 -109 l 1
 110 -109 l 1
 110 437 l 1
 15 437 l 1
 15 524 l 1
 235 524 l 1
 235 425 l 1
 270 511 330 538 383 538 c 0
 513 538 600 418 600 262 c 0
 600 106 510 -13 374 -13 c 0
 316 -13 268 19 235 74 c 1
 235 -106 l 1
 339 -106 l 1
 339 -196 l 1
 15 -196 l 1
354 67 m 0
 448 67 468 181 468 268 c 0
 468 352 437 449 353 449 c 0
 272 449 235 371 235 239 c 0
 235 158 263 67 354 67 c 0
EndSplineSet
EndChar

StartChar: q
Encoding: 42 113 84
Width: 623
Flags: HW
LayerCount: 2
Fore
SplineSet
275 -195 m 1
 275 -110 l 1
 380 -110 l 1
 380 64 l 1
 347 15 299 -14 241 -14 c 0
 105 -14 15 106 15 262 c 0
 15 418 102 538 232 538 c 0
 297 538 358 506 402 447 c 1
 443 524 l 1
 505 524 l 1
 505 -110 l 1
 608 -110 l 1
 608 -195 l 1
 275 -195 l 1
261 67 m 0
 352 67 380 158 380 239 c 0
 380 371 343 450 262 450 c 0
 178 450 147 352 147 268 c 0
 147 181 167 67 261 67 c 0
EndSplineSet
EndChar

StartChar: _11
Encoding: 85 -1 85
Width: 600
Flags: HW
LayerCount: 2
Fore
SplineSet
15 205 m 0
 15 258 42 309 97 326 c 2
 280 382 l 2
 317 393 342 426 342 464 c 0
 342 528 291 541 237 541 c 0
 205 541 153 543 133 510 c 1
 167 506 194 488 194 451 c 0
 194 413 162 382 124 382 c 0
 75 382 46 419 46 466 c 0
 46 579 170 617 263 617 c 0
 341 617 459 590 459 489 c 2
 459 189 l 2
 459 178 472 168 481 168 c 0
 524 168 523 250 525 270 c 1
 530 275 l 1
 585 275 l 1
 585 183 556 91 450 91 c 0
 386 91 348 127 331 189 c 1
 331 188 327 184 326 183 c 0
 280 119 240 81 157 81 c 0
 79 81 15 123 15 205 c 0
127 215 m 0
 127 179 151 158 186 158 c 0
 249 158 291 207 331 250 c 0
 349 269 343 341 343 362 c 1
 331 362 l 1
 158 270 l 2
 140 261 127 234 127 215 c 0
EndSplineSet
EndChar

StartChar: tt
Encoding: 86 -1 86
Width: 797
Flags: HW
LayerCount: 2
Fore
SplineSet
481.227539062 457 m 1
 481.227539062 136 l 2
 481.227539062 31 561.227539062 -13 624.227539062 -13 c 0
 765.227539062 -13 785.227539062 91 781.227539062 220 c 1
 710.227539062 220 l 1
 710.227539062 210 710.227539062 196 710.227539062 182 c 0
 710.227539062 138 706.227539062 82 663.227539062 82 c 0
 610.227539062 82 610.227539062 132 610.227539062 149 c 2
 610.227539062 456 l 1
 753.227539062 456 l 1
 753.227539062 524 l 1
 610.227539062 524 l 1
 610.227539062 777 l 2
 610.227539062 788 601.227539062 794 591.227539062 794 c 0
 581.227539062 794 571.227539062 788 569.227539062 777 c 0
 546.227539062 652 492.341064453 524 426.340820312 524 c 2
 244 524 l 1
 244 777 l 2
 244 788 235 794 225 794 c 0
 215 794 205 788 203 777 c 0
 180 652 162 553 15 510 c 1
 15 457 l 1
 115 457 l 1
 115 136 l 2
 115 31 195 -13 258 -13 c 0
 399 -13 419 91 415 220 c 1
 344 220 l 1
 344 210 344 196 344 182 c 0
 344 138 340 82 297 82 c 0
 244 82 244 132 244 149 c 2
 244 456 l 1
 481.227539062 457 l 1
EndSplineSet
LCarets2: 1 0 
Ligature2: "'liga' Standard Ligatures in Latin lookup 0-1" t t
EndChar
